<?xml version="1.0" encoding="UTF-8"?>
<svg fill="#fff" version="1.1" viewBox="0 0 700 700" xmlns="http://www.w3.org/2000/svg" xmlns:xlink="http://www.w3.org/1999/xlink">
 <defs>
  <symbol id="v" overflow="visible">
   <path d="m3.7188-0.21875c-0.1875 0.09375-0.38672 0.16797-0.59375 0.21875-0.21094 0.050781-0.42969 0.078125-0.65625 0.078125-0.66797 0-1.1992-0.1875-1.5938-0.5625-0.39844-0.375-0.59375-0.89062-0.59375-1.5469 0-0.64453 0.19531-1.1562 0.59375-1.5312 0.39453-0.375 0.92578-0.5625 1.5938-0.5625 0.22656 0 0.44531 0.027344 0.65625 0.078125 0.20703 0.054687 0.40625 0.125 0.59375 0.21875v0.84375c-0.1875-0.13281-0.375-0.23438-0.5625-0.29688s-0.38672-0.09375-0.59375-0.09375c-0.375 0-0.67188 0.12109-0.89062 0.35938-0.21094 0.24219-0.3125 0.57031-0.3125 0.98438 0 0.42969 0.10156 0.76172 0.3125 1 0.21875 0.24219 0.51562 0.35938 0.89062 0.35938 0.20703 0 0.40625-0.03125 0.59375-0.09375s0.375-0.16016 0.5625-0.29688z"/>
  </symbol>
  <symbol id="d" overflow="visible">
   <path d="m2.7344-2.2188c-0.09375-0.03125-0.18359-0.054688-0.26562-0.078125-0.085938-0.019531-0.16797-0.03125-0.25-0.03125-0.25 0-0.44531 0.085937-0.57812 0.25-0.13672 0.15625-0.20312 0.38281-0.20312 0.67188v1.4062h-0.96875v-3.0469h0.96875v0.5c0.125-0.19531 0.26562-0.33594 0.42188-0.42188 0.16406-0.09375 0.36328-0.14062 0.59375-0.14062h0.09375c0.039063 0 0.097656 0.007813 0.17188 0.015625z"/>
  </symbol>
  <symbol id="b" overflow="visible">
   <path d="m3.5-1.5312v0.28125h-2.2656c0.019531 0.23047 0.097656 0.40234 0.23438 0.51562 0.14453 0.11719 0.34375 0.17188 0.59375 0.17188 0.20703 0 0.41406-0.03125 0.625-0.09375 0.21875-0.0625 0.44141-0.15625 0.67188-0.28125v0.75c-0.23047 0.09375-0.46094 0.16406-0.6875 0.20312-0.23047 0.039062-0.46094 0.0625-0.6875 0.0625-0.55469 0-0.98438-0.14062-1.2969-0.42188-0.30469-0.28125-0.45312-0.67188-0.45312-1.1719s0.14844-0.89062 0.45312-1.1719c0.30078-0.28125 0.71094-0.42188 1.2344-0.42188 0.47656 0 0.85938 0.14844 1.1406 0.4375 0.28906 0.28125 0.4375 0.66406 0.4375 1.1406zm-1-0.32812c0-0.17578-0.054688-0.32031-0.15625-0.4375-0.10547-0.11328-0.24609-0.17188-0.42188-0.17188-0.1875 0-0.34375 0.054688-0.46875 0.15625-0.11719 0.10547-0.1875 0.25781-0.21875 0.45312z"/>
  </symbol>
  <symbol id="l" overflow="visible">
   <path d="m1.8281-1.375c-0.19922 0-0.35156 0.039062-0.45312 0.10938-0.10547 0.074219-0.15625 0.17188-0.15625 0.29688s0.039062 0.22656 0.125 0.29688c0.082031 0.074219 0.19531 0.10938 0.34375 0.10938 0.1875 0 0.33594-0.066406 0.45312-0.20312 0.125-0.13281 0.1875-0.29688 0.1875-0.48438v-0.125zm1.4844-0.35938v1.7344h-0.98438v-0.45312c-0.125 0.1875-0.27344 0.32422-0.4375 0.40625-0.15625 0.082031-0.35547 0.125-0.59375 0.125-0.3125 0-0.57031-0.085938-0.76562-0.26562-0.19922-0.1875-0.29688-0.42578-0.29688-0.71875 0-0.36328 0.11719-0.62891 0.35938-0.79688 0.25-0.16406 0.64062-0.25 1.1719-0.25h0.5625v-0.078125c0-0.14453-0.0625-0.25391-0.1875-0.32812-0.11719-0.070313-0.29688-0.10938-0.54688-0.10938-0.21094 0-0.40625 0.023438-0.59375 0.0625-0.17969 0.042969-0.34375 0.10547-0.5 0.1875v-0.73438c0.20703-0.050781 0.41406-0.085937 0.625-0.10938 0.21875-0.03125 0.42969-0.046875 0.64062-0.046875 0.53906 0 0.92969 0.10938 1.1719 0.32812 0.25 0.21094 0.375 0.55859 0.375 1.0469z"/>
  </symbol>
  <symbol id="a" overflow="visible">
   <path d="m1.5312-3.9062v0.85938h1v0.70312h-1v1.2812c0 0.14844 0.023438 0.24609 0.078125 0.29688 0.0625 0.042969 0.17578 0.0625 0.34375 0.0625h0.5v0.70312h-0.84375c-0.38672 0-0.65625-0.078125-0.8125-0.23438-0.15625-0.16406-0.23438-0.44141-0.23438-0.82812v-1.2812h-0.48438v-0.70312h0.48438v-0.85938z"/>
  </symbol>
  <symbol id="f" overflow="visible">
   <path d="m2.5312-2.5938v-1.625h0.98438v4.2188h-0.98438v-0.4375c-0.13672 0.17969-0.28125 0.30859-0.4375 0.39062-0.15625 0.082031-0.34375 0.125-0.5625 0.125-0.375 0-0.68359-0.14453-0.92188-0.4375-0.24219-0.30078-0.35938-0.6875-0.35938-1.1562s0.11719-0.84766 0.35938-1.1406c0.23828-0.30078 0.54688-0.45312 0.92188-0.45312 0.20703 0 0.39062 0.042969 0.54688 0.125 0.16406 0.085937 0.31641 0.21484 0.45312 0.39062zm-0.64062 1.9688c0.20703 0 0.36328-0.070312 0.46875-0.21875 0.11328-0.15625 0.17188-0.37891 0.17188-0.67188 0-0.28906-0.058594-0.50781-0.17188-0.65625-0.10547-0.15625-0.26172-0.23438-0.46875-0.23438-0.19922 0-0.35547 0.078125-0.46875 0.23438-0.11719 0.14844-0.17188 0.36719-0.17188 0.65625 0 0.29297 0.054688 0.51562 0.17188 0.67188 0.11328 0.14844 0.26953 0.21875 0.46875 0.21875z"/>
  </symbol>
  <symbol id="k" overflow="visible">
   <path d="m2.0938-0.625c0.19531 0 0.35156-0.070312 0.46875-0.21875 0.11328-0.15625 0.17188-0.37891 0.17188-0.67188 0-0.28906-0.058594-0.50781-0.17188-0.65625-0.11719-0.15625-0.27344-0.23438-0.46875-0.23438-0.21094 0-0.37109 0.078125-0.48438 0.23438-0.11719 0.14844-0.17188 0.36719-0.17188 0.65625 0 0.28125 0.054688 0.5 0.17188 0.65625 0.11328 0.15625 0.27344 0.23438 0.48438 0.23438zm-0.65625-1.9688c0.13281-0.17578 0.28125-0.30469 0.4375-0.39062 0.16406-0.082031 0.35938-0.125 0.57812-0.125 0.375 0 0.67969 0.15234 0.92188 0.45312 0.23828 0.29297 0.35938 0.67188 0.35938 1.1406s-0.12109 0.85547-0.35938 1.1562c-0.24219 0.29297-0.54688 0.4375-0.92188 0.4375-0.21875 0-0.41406-0.042969-0.57812-0.125-0.15625-0.082031-0.30469-0.21094-0.4375-0.39062v0.4375h-0.96875v-4.2188h0.96875z"/>
  </symbol>
  <symbol id="e" overflow="visible">
   <path d="m0.0625-3.0469h0.98438l0.8125 2.0625 0.6875-2.0625h0.98438l-1.2812 3.3281c-0.13672 0.34375-0.28906 0.58203-0.45312 0.71875-0.16797 0.13281-0.39062 0.20312-0.67188 0.20312h-0.5625v-0.64062h0.29688c0.16406 0 0.28516-0.027344 0.35938-0.078125 0.070312-0.054687 0.12891-0.14844 0.17188-0.28125l0.03125-0.09375z"/>
  </symbol>
  <symbol id="j" overflow="visible">
   <path d="m2.9688-0.73438h-1.625l-0.26562 0.73438h-1.0469l1.5-4.0625h1.25l1.5 4.0625h-1.0469zm-1.375-0.75h1.1094l-0.54688-1.625z"/>
  </symbol>
  <symbol id="i" overflow="visible">
   <path d="m3.2812-2.5312c0.125-0.1875 0.26953-0.32812 0.4375-0.42188 0.17578-0.10156 0.36328-0.15625 0.5625-0.15625 0.35156 0 0.61719 0.10938 0.79688 0.32812 0.1875 0.21094 0.28125 0.51562 0.28125 0.92188v1.8594h-0.98438v-1.5938-0.0625c0.007812-0.03125 0.015625-0.066406 0.015625-0.10938 0-0.21875-0.039063-0.375-0.10938-0.46875-0.0625-0.09375-0.16406-0.14062-0.29688-0.14062-0.1875 0-0.33594 0.078125-0.4375 0.23438-0.09375 0.14844-0.14844 0.35938-0.15625 0.64062v1.5h-0.96875v-1.5938c0-0.33203-0.03125-0.54688-0.09375-0.64062-0.054687-0.09375-0.15234-0.14062-0.29688-0.14062-0.1875 0-0.33594 0.078125-0.4375 0.23438-0.10547 0.14844-0.15625 0.35938-0.15625 0.64062v1.5h-0.96875v-3.0469h0.96875v0.45312c0.125-0.17578 0.25781-0.30469 0.40625-0.39062 0.15625-0.082031 0.32812-0.125 0.51562-0.125 0.20703 0 0.39062 0.054687 0.54688 0.15625 0.16406 0.09375 0.28906 0.23438 0.375 0.42188z"/>
  </symbol>
  <symbol id="h" overflow="visible">
   <path d="m3.5312-1.8594v1.8594h-0.98438v-1.4062c0-0.26953-0.007813-0.45312-0.015625-0.54688-0.011719-0.10156-0.03125-0.17969-0.0625-0.23438-0.042969-0.0625-0.09375-0.10938-0.15625-0.14062s-0.13672-0.046875-0.21875-0.046875c-0.21094 0-0.37109 0.078125-0.48438 0.23438-0.11719 0.15625-0.17188 0.37109-0.17188 0.64062v1.5h-0.96875v-4.2188h0.96875v1.625c0.14453-0.17578 0.30078-0.30469 0.46875-0.39062 0.16406-0.082031 0.34766-0.125 0.54688-0.125 0.35156 0 0.61719 0.10938 0.79688 0.32812 0.1875 0.21094 0.28125 0.51562 0.28125 0.92188z"/>
  </symbol>
  <symbol id="u" overflow="visible">
   <path d="m2.8438-2.9531v0.75c-0.21094-0.09375-0.41406-0.16016-0.60938-0.20312-0.1875-0.039062-0.37109-0.0625-0.54688-0.0625-0.17969 0-0.3125 0.027344-0.40625 0.078125-0.09375 0.042969-0.14062 0.10938-0.14062 0.20312 0 0.085938 0.03125 0.14844 0.09375 0.1875 0.070313 0.042969 0.19531 0.070312 0.375 0.078125l0.17188 0.03125c0.5 0.0625 0.83203 0.16797 1 0.3125 0.17578 0.14844 0.26562 0.375 0.26562 0.6875 0 0.32422-0.12109 0.57031-0.35938 0.73438-0.24219 0.15625-0.59375 0.23438-1.0625 0.23438-0.21094 0-0.42188-0.015625-0.64062-0.046875-0.21094-0.03125-0.42969-0.078125-0.65625-0.14062v-0.73438c0.19531 0.09375 0.39453 0.16797 0.59375 0.21875 0.20703 0.042969 0.41406 0.0625 0.625 0.0625 0.19531 0 0.34375-0.023438 0.4375-0.078125 0.09375-0.050781 0.14062-0.12891 0.14062-0.23438 0-0.09375-0.039062-0.16016-0.10938-0.20312-0.0625-0.039063-0.19531-0.070313-0.39062-0.09375l-0.17188-0.015625c-0.42969-0.0625-0.73047-0.16406-0.90625-0.3125-0.17969-0.14453-0.26562-0.36719-0.26562-0.67188 0-0.3125 0.10938-0.54688 0.32812-0.70312 0.22656-0.15625 0.57031-0.23438 1.0312-0.23438 0.17578 0 0.36328 0.015625 0.5625 0.046875 0.19531 0.023438 0.41016 0.058594 0.64062 0.10938z"/>
  </symbol>
  <symbol id="t" overflow="visible">
   <path d="m3.3281-3.9219v0.85938c-0.21875-0.10156-0.4375-0.17969-0.65625-0.23438-0.21094-0.050781-0.40625-0.078125-0.59375-0.078125-0.25 0-0.4375 0.039062-0.5625 0.10938-0.11719 0.0625-0.17188 0.16797-0.17188 0.3125 0 0.11719 0.039062 0.20312 0.125 0.26562 0.082031 0.054688 0.22656 0.10547 0.4375 0.15625l0.45312 0.078125c0.44531 0.09375 0.76562 0.23438 0.95312 0.42188s0.28125 0.44922 0.28125 0.78125c0 0.44922-0.13672 0.78125-0.40625 1-0.26172 0.21875-0.66406 0.32812-1.2031 0.32812-0.26172 0-0.52344-0.027344-0.78125-0.078125-0.25-0.039062-0.50781-0.11328-0.76562-0.21875v-0.875c0.25781 0.13672 0.50781 0.24219 0.75 0.3125 0.23828 0.074219 0.47266 0.10938 0.70312 0.10938 0.22656 0 0.39844-0.035156 0.51562-0.10938 0.125-0.082031 0.1875-0.19531 0.1875-0.34375 0-0.125-0.042969-0.21875-0.125-0.28125-0.085938-0.070312-0.25-0.13281-0.5-0.1875l-0.40625-0.09375c-0.39844-0.082031-0.6875-0.21875-0.875-0.40625-0.1875-0.19531-0.28125-0.45703-0.28125-0.78125 0-0.40625 0.12891-0.71094 0.39062-0.92188 0.25781-0.21875 0.63281-0.32812 1.125-0.32812 0.21875 0 0.44141 0.015625 0.67188 0.046875 0.23828 0.03125 0.48438 0.085937 0.73438 0.15625z"/>
  </symbol>
  <symbol id="g" overflow="visible">
   <path d="m0.4375-1.1875v-1.8594h0.96875v0.3125 0.625 0.48438c0 0.25 0.003906 0.43359 0.015625 0.54688 0.007813 0.10547 0.03125 0.17969 0.0625 0.21875 0.039063 0.0625 0.09375 0.11719 0.15625 0.15625 0.070313 0.03125 0.14844 0.046875 0.23438 0.046875 0.19531 0 0.35156-0.078125 0.46875-0.23438 0.11328-0.15625 0.17188-0.375 0.17188-0.65625v-1.5h0.98438v3.0469h-0.98438v-0.4375c-0.14844 0.17969-0.30469 0.30859-0.46875 0.39062-0.15625 0.082031-0.33594 0.125-0.53125 0.125-0.35547 0-0.625-0.10156-0.8125-0.3125-0.17969-0.21875-0.26562-0.53516-0.26562-0.95312z"/>
  </symbol>
  <symbol id="s" overflow="visible">
   <path d="m0.46875-3.0469h0.96875v3.0469h-0.96875zm0-1.1719h0.96875v0.78125h-0.96875z"/>
  </symbol>
  <symbol id="c" overflow="visible">
   <path d="m1.9219-2.4219c-0.21875 0-0.38672 0.078125-0.5 0.23438-0.11719 0.15625-0.17188 0.38281-0.17188 0.67188 0 0.29297 0.054688 0.51562 0.17188 0.67188 0.11328 0.15625 0.28125 0.23438 0.5 0.23438 0.20703 0 0.36328-0.078125 0.46875-0.23438 0.11328-0.15625 0.17188-0.37891 0.17188-0.67188 0-0.28906-0.058594-0.51562-0.17188-0.67188-0.10547-0.15625-0.26172-0.23438-0.46875-0.23438zm0-0.6875c0.51953 0 0.92578 0.14062 1.2188 0.42188 0.28906 0.28125 0.4375 0.67188 0.4375 1.1719s-0.14844 0.89062-0.4375 1.1719c-0.29297 0.28125-0.69922 0.42188-1.2188 0.42188-0.53125 0-0.94922-0.14062-1.25-0.42188-0.29297-0.28125-0.4375-0.67188-0.4375-1.1719s0.14453-0.89062 0.4375-1.1719c0.30078-0.28125 0.71875-0.42188 1.25-0.42188z"/>
  </symbol>
  <symbol id="r" overflow="visible">
   <path d="m2.4688-4.2188v0.625h-0.53125c-0.14844 0-0.24609 0.027344-0.29688 0.078125-0.054687 0.054687-0.078125 0.14062-0.078125 0.26562v0.20312h0.82812v0.70312h-0.82812v2.3438h-0.96875v-2.3438h-0.48438v-0.70312h0.48438v-0.20312c0-0.33203 0.085938-0.57812 0.26562-0.73438 0.1875-0.15625 0.47266-0.23438 0.85938-0.23438z"/>
  </symbol>
  <symbol id="q" overflow="visible">
   <path d="m0.51562-4.0625h1.1562l1.4844 2.7812v-2.7812h0.98438v4.0625h-1.1562l-1.4844-2.7812v2.7812h-0.98438z"/>
  </symbol>
  <symbol id="p" overflow="visible">
   <path d="m3.5312-1.8594v1.8594h-0.98438v-1.4219c0-0.25781-0.007813-0.4375-0.015625-0.53125-0.011719-0.10156-0.03125-0.17969-0.0625-0.23438-0.042969-0.0625-0.09375-0.10938-0.15625-0.14062s-0.13672-0.046875-0.21875-0.046875c-0.21094 0-0.37109 0.078125-0.48438 0.23438-0.11719 0.15625-0.17188 0.37109-0.17188 0.64062v1.5h-0.96875v-3.0469h0.96875v0.45312c0.14453-0.17578 0.30078-0.30469 0.46875-0.39062 0.16406-0.082031 0.34766-0.125 0.54688-0.125 0.35156 0 0.61719 0.10938 0.79688 0.32812 0.1875 0.21094 0.28125 0.51562 0.28125 0.92188z"/>
  </symbol>
  <symbol id="o" overflow="visible">
   <path d="m0.51562-4.0625h1.7344c0.50781 0 0.89844 0.11719 1.1719 0.34375 0.28125 0.23047 0.42188 0.55859 0.42188 0.98438 0 0.42969-0.14062 0.75781-0.42188 0.98438-0.27344 0.23047-0.66406 0.34375-1.1719 0.34375h-0.6875v1.4062h-1.0469zm1.0469 0.76562v1.125h0.57812c0.19531 0 0.34766-0.046875 0.45312-0.14062 0.11328-0.09375 0.17188-0.23438 0.17188-0.42188 0-0.17578-0.058594-0.3125-0.17188-0.40625-0.10547-0.10156-0.25781-0.15625-0.45312-0.15625z"/>
  </symbol>
  <symbol id="n" overflow="visible">
   <path d="m0.46875-3.0469h0.96875v3c0 0.40625-0.10156 0.71094-0.29688 0.92188-0.1875 0.21875-0.46875 0.32812-0.84375 0.32812h-0.48438v-0.64062h0.17188c0.1875 0 0.3125-0.042969 0.375-0.125 0.070313-0.085938 0.10938-0.24609 0.10938-0.48438zm0-1.1719h0.96875v0.78125h-0.96875z"/>
  </symbol>
  <symbol id="m" overflow="visible">
   <path d="m2.9219-2.9531v0.79688c-0.125-0.09375-0.25781-0.16016-0.39062-0.20312-0.13672-0.039063-0.27734-0.0625-0.42188-0.0625-0.27344 0-0.48438 0.085937-0.64062 0.25-0.14844 0.15625-0.21875 0.375-0.21875 0.65625s0.070312 0.50781 0.21875 0.67188c0.15625 0.15625 0.36719 0.23438 0.64062 0.23438 0.15625 0 0.30078-0.019531 0.4375-0.0625 0.13281-0.050781 0.25781-0.125 0.375-0.21875v0.79688c-0.14844 0.0625-0.29688 0.10156-0.45312 0.125-0.15625 0.03125-0.32031 0.046875-0.48438 0.046875-0.54297 0-0.96875-0.14062-1.2812-0.42188s-0.46875-0.67188-0.46875-1.1719 0.15625-0.89062 0.46875-1.1719 0.73828-0.42188 1.2812-0.42188c0.16406 0 0.32031 0.015625 0.46875 0.046875 0.15625 0.023438 0.3125 0.058594 0.46875 0.10938z"/>
  </symbol>
 </defs>
 <g>
  <path d="m165.75 467.38h128.79v51.316h-74.395c-2.4531 0-4.4453 1.9883-4.4453 4.4453v32.418c0 2.4531 1.9883 4.4453 4.4453 4.4453h259.71c2.4531 0 4.4453-1.9883 4.4453-4.4453v-32.418c0-2.4531-1.9883-4.4453-4.4453-4.4453h-74.398v-51.316h128.79c18.488 0 33.535-15.043 33.535-33.535l-0.003906-238.21c0-18.488-15.043-33.535-33.535-33.535h-68.496v-21.352l77.672-69.363c2.4297 1.4805 5.2695 2.3516 8.3164 2.3516 8.8438 0 16.039-7.1875 16.039-16.023s-7.1953-16.023-16.039-16.023-16.039 7.1875-16.039 16.023c0 2.5625 0.62109 4.9805 1.6992 7.1328l-79.055 70.598c-0.94531 0.84375-1.4844 2.0508-1.4844 3.3125v23.344h-46.762l0.003906-67.902 46.512-49.887c2.1211 1.0391 4.4961 1.6367 7.0156 1.6367 8.8438 0 16.039-7.1875 16.039-16.023 0-8.8359-7.1953-16.023-16.039-16.023s-16.039 7.1875-16.039 16.023c0 3.0938 0.89844 5.9766 2.4258 8.4297l-47.609 51.062c-0.76562 0.82031-1.1914 1.9062-1.1914 3.0312v69.656h-46.766v-130.69c6.6875-1.9297 11.594-8.0898 11.594-15.383 0-8.8359-7.1953-16.023-16.039-16.023s-16.039 7.1875-16.039 16.023c0 7.293 4.9062 13.449 11.594 15.383v130.69h-46.762v-69.656c0-1.125-0.42578-2.207-1.1914-3.0312l-47.609-51.062c1.5273-2.4531 2.4258-5.3359 2.4258-8.4297 0-8.8359-7.1953-16.023-16.039-16.023s-16.039 7.1875-16.039 16.023c0 8.8359 7.1953 16.023 16.039 16.023 2.5195 0 4.8945-0.59766 7.0156-1.6367l46.512 49.887v67.902h-46.766v-23.344c0-1.2656-0.53906-2.4727-1.4844-3.3125l-79.055-70.598c1.0781-2.1523 1.6992-4.5703 1.6992-7.1328 0-8.8359-7.1953-16.023-16.039-16.023s-16.039 7.1875-16.039 16.023 7.1953 16.023 16.039 16.023c3.0469 0 5.8906-0.86719 8.3164-2.3516l77.672 69.363v21.352h-68.496c-18.488 0-33.535 15.043-33.535 33.535v238.22c0.003906 18.488 15.047 33.531 33.535 33.531zm385.98-416.8c3.9414 0 7.1484 3.1992 7.1484 7.1328s-3.207 7.1328-7.1484 7.1328c-3.9414 0-7.1484-3.1992-7.1484-7.1328s3.207-7.1328 7.1484-7.1328zm-88.113-27.789c3.9414 0 7.1484 3.1992 7.1484 7.1328 0 3.9336-3.207 7.1328-7.1484 7.1328s-7.1484-3.1992-7.1484-7.1328c-0.003906-3.9336 3.2031-7.1328 7.1484-7.1328zm-120.77-6.7578c0-3.9336 3.207-7.1328 7.1484-7.1328s7.1484 3.1992 7.1484 7.1328c0 3.9336-3.207 7.1328-7.1484 7.1328s-7.1484-3.1992-7.1484-7.1328zm-113.62 13.891c0-3.9336 3.207-7.1328 7.1484-7.1328s7.1484 3.1992 7.1484 7.1328c0 3.9336-3.207 7.1328-7.1484 7.1328-3.9414 0.003906-7.1484-3.1992-7.1484-7.1328zm-80.965 34.922c-3.9414 0-7.1484-3.1992-7.1484-7.1328s3.207-7.1328 7.1484-7.1328c3.9414 0 7.1484 3.1992 7.1484 7.1328s-3.207 7.1328-7.1484 7.1328zm327.15 486.27h-250.82v-23.527h250.82zm-78.84-32.418h-93.141v-51.316h93.141zm60.289-347.71v98.234c-8.4531-2.9453-17.75-3.7305-27.008-2.0977 1.1602-8.7812 1.0273-21.906-6.5625-33.543-3.4219-5.2461-7.9297-9.6016-13.191-13.02v-49.574zm24.789 163.52c0 3.9336-3.207 7.1328-7.1484 7.1328s-7.1484-3.1992-7.1484-7.1328 3.207-7.1328 7.1484-7.1328 7.1484 3.1992 7.1484 7.1328zm-0.43359-14.531c-2.0469-0.94922-4.3164-1.4922-6.7148-1.4922-8.8438 0-16.039 7.1875-16.039 16.023s7.1953 16.023 16.039 16.023c8.707 0 15.801-6.9688 16.02-15.613 8.5938 3.3789 15.18 10.016 17.535 18.117 1.4414 4.9531 1.293 10.371-0.43359 15.672-3.957 12.156-15.531 20.324-28.801 20.324l-104.48-0.003907c-11.668 0-17.727-8.4062-19.371-15.602-1.5781-6.9258 0.16406-16.738 10.27-21.602 0.41406-0.19922 0.83203-0.39062 1.2617-0.57031 8.0312-3.3906 16.082-2.375 21.465-0.90234 0.46094 8.4258 7.4453 15.145 15.996 15.145 8.8438 0 16.039-7.1875 16.039-16.023 0-8.8359-7.1953-16.023-16.039-16.023-6.0117 0-11.258 3.3281-14.004 8.2305-6.7266-1.7812-16.723-2.9219-26.914 1.3828-0.55859 0.23437-1.1094 0.48437-1.6562 0.74609-2.6914 1.2969-4.9883 2.8711-6.9453 4.6445v-123.37c24.082-9.4727 50.098-3.9609 61.398 13.355 6.4102 9.8242 6.168 21.238 5.0469 28.559-1.0039-0.19922-2.043-0.30859-3.1055-0.30859-8.8438 0-16.039 7.1875-16.039 16.023s7.1953 16.023 16.039 16.023 16.039-7.1875 16.039-16.023c0-2.4961-0.58984-4.8555-1.6172-6.9648 15.059-2.3789 30.074 2.7969 39.621 14.074 8.7148 10.305 9.8125 22.434 9.3867 30.156zm-84.402 29.5c0-3.9336 3.207-7.1328 7.1484-7.1328 3.9414 0 7.1484 3.1992 7.1484 7.1328s-3.207 7.1328-7.1484 7.1328c-3.9414 0-7.1484-3.1992-7.1484-7.1328zm-86.77-7.793c-2.7461-4.9023-7.9883-8.2305-14.004-8.2305-8.8438 0-16.039 7.1875-16.039 16.023s7.1953 16.023 16.039 16.023c8.5469 0 15.535-6.7188 15.996-15.145 5.3828-1.4727 13.434-2.4883 21.465 0.90234 0.42578 0.17969 0.84375 0.36719 1.2539 0.56641 10.109 4.8633 11.848 14.676 10.27 21.602-1.6406 7.1992-7.6992 15.602-19.371 15.602h-104.46c-13.27 0-24.844-8.168-28.801-20.324-1.7266-5.3008-1.875-10.719-0.43359-15.672 2.3555-8.1016 8.9414-14.738 17.535-18.117 0.21875 8.6445 7.3125 15.613 16.02 15.613 8.8438 0 16.039-7.1875 16.039-16.023 0-8.8359-7.1953-16.023-16.039-16.023-2.3984 0-4.668 0.54297-6.7148 1.4922-0.42578-7.7227 0.67188-19.848 9.3906-30.152 9.5469-11.277 24.562-16.457 39.617-14.074-1.0234 2.1094-1.6172 4.4648-1.6172 6.9648 0 8.8359 7.1953 16.023 16.039 16.023s16.039-7.1875 16.039-16.023-7.1953-16.023-16.039-16.023c-1.0625 0-2.1016 0.10937-3.1055 0.30859-1.1211-7.3203-1.3633-18.734 5.0469-28.559 11.301-17.32 37.316-22.832 61.398-13.355v123.38c-1.957-1.7695-4.2539-3.3477-6.9453-4.6445-0.54688-0.26172-1.0977-0.51172-1.6523-0.74609-10.199-4.3047-20.195-3.1641-26.922-1.3828zm-6.8555 7.793c0 3.9336-3.207 7.1328-7.1484 7.1328-3.9414 0-7.1484-3.1992-7.1484-7.1328s3.207-7.1328 7.1484-7.1328c3.9414 0 7.1484 3.1992 7.1484 7.1328zm-77.688-22.102c3.9414 0 7.1484 3.1992 7.1484 7.1328s-3.207 7.1328-7.1484 7.1328-7.1484-3.1992-7.1484-7.1328 3.207-7.1328 7.1484-7.1328zm56.719-51.797c3.9414 0 7.1484 3.1992 7.1484 7.1328s-3.207 7.1328-7.1484 7.1328-7.1484-3.1992-7.1484-7.1328c-0.003906-3.9336 3.2031-7.1328 7.1484-7.1328zm142.71 7.1367c0 3.9336-3.207 7.1328-7.1484 7.1328s-7.1484-3.1992-7.1484-7.1328c0-3.9336 3.207-7.1328 7.1484-7.1328 3.9414-0.003907 7.1484 3.1992 7.1484 7.1328zm-23.727-111.73v44.973c-13.695-5.5117-30.535-5.8789-46.762-0.33594v-44.637zm-55.652 0v44.637c-16.227-5.543-33.066-5.1719-46.762 0.33594v-44.973zm-55.652 0v49.574c-5.2617 3.418-9.7695 7.7734-13.191 13.02-7.5898 11.637-7.7227 24.758-6.5625 33.543-9.2617-1.6328-18.555-0.85156-27.008 2.0977v-98.23zm-124.15 0h68.496v102.32c-4.8086 2.8047-9.168 6.4141-12.859 10.777-12.699 15.004-12.246 32.617-11.035 41.164-13.098 3.6836-23.438 13.254-26.941 25.301-1.9414 6.6719-1.7656 13.902 0.51563 20.906 5.1523 15.828 20.125 26.461 37.254 26.461h104.47c11.48 0 19.715-5.957 24.344-13.508 4.6328 7.5508 12.863 13.508 24.344 13.508h104.47c17.133 0 32.102-10.633 37.254-26.461 2.2812-7.0039 2.457-14.234 0.51562-20.906-3.5039-12.047-13.844-21.617-26.941-25.301 1.2109-8.5508 1.6641-26.16-11.035-41.164-3.6914-4.3633-8.0508-7.9727-12.859-10.777v-102.32h68.496c13.59 0 24.645 11.055 24.645 24.645v216.55h-417.77v-216.55c0-13.59 11.059-24.645 24.645-24.645zm-24.645 250.08h417.78v12.777c0 13.59-11.055 24.645-24.645 24.645l-368.49 0.003906c-13.59 0-24.645-11.055-24.645-24.645z"/>
  
 </g>
</svg>
