<?xml version="1.0" encoding="UTF-8"?>
<svg width="700pt" height="700pt" fill="#fff" version="1.1" viewBox="0 0 700 700" xmlns="http://www.w3.org/2000/svg" xmlns:xlink="http://www.w3.org/1999/xlink">
 <defs>
  <symbol id="e" overflow="visible">
   <path d="m39.078-2.3281c-2.0117 1.043-4.1094 1.8281-6.2969 2.3594s-4.4648 0.79688-6.8281 0.79688c-7.0859 0-12.699-1.9766-16.844-5.9375-4.1367-3.957-6.2031-9.3281-6.2031-16.109 0-6.7891 2.0664-12.164 6.2031-16.125 4.1445-3.9688 9.7578-5.9531 16.844-5.9531 2.3633 0 4.6406 0.26562 6.8281 0.79688s4.2852 1.3242 6.2969 2.375v8.7969c-2.0312-1.3828-4.0391-2.3984-6.0156-3.0469-1.9688-0.64453-4.0469-0.96875-6.2344-0.96875-3.9062 0-6.9844 1.2578-9.2344 3.7656-2.2422 2.5-3.3594 5.9531-3.3594 10.359 0 4.3867 1.1172 7.8359 3.3594 10.344 2.25 2.5 5.3281 3.75 9.2344 3.75 2.1875 0 4.2656-0.32031 6.2344-0.96875 1.9766-0.64453 3.9844-1.6602 6.0156-3.0469z"/>
  </symbol>
  <symbol id="a" overflow="visible">
   <path d="m16.031-40.953v9.0625h10.516v7.2812h-10.516v13.531c0 1.4805 0.28906 2.4805 0.875 3 0.59375 0.52344 1.7656 0.78125 3.5156 0.78125h5.2344v7.2969h-8.7344c-4.0312 0-6.8867-0.83594-8.5625-2.5156-1.6797-1.6875-2.5156-4.5391-2.5156-8.5625v-13.531h-5.0781v-7.2812h5.0781v-9.0625z"/>
  </symbol>
  <symbol id="d" overflow="visible">
   <path d="m26.594-27.234v-17.078h10.266v44.312h-10.266v-4.6094c-1.3984 1.875-2.9453 3.25-4.6406 4.125-1.6875 0.875-3.6406 1.3125-5.8594 1.3125-3.9297 0-7.1562-1.5625-9.6875-4.6875-2.5234-3.125-3.7812-7.1445-3.7812-12.062 0-4.9141 1.2578-8.9375 3.7812-12.062 2.5312-3.125 5.7578-4.6875 9.6875-4.6875 2.1953 0 4.1445 0.44531 5.8438 1.3281 1.707 0.88672 3.2578 2.2578 4.6562 4.1094zm-6.7188 20.656c2.1875 0 3.8516-0.79688 5-2.3906 1.1445-1.5938 1.7188-3.9102 1.7188-6.9531 0-3.0391-0.57422-5.3594-1.7188-6.9531-1.1484-1.5938-2.8125-2.3906-5-2.3906-2.168 0-3.8242 0.79688-4.9688 2.3906-1.1484 1.5938-1.7188 3.9141-1.7188 6.9531 0 3.043 0.57031 5.3594 1.7188 6.9531 1.1445 1.5938 2.8008 2.3906 4.9688 2.3906z"/>
  </symbol>
  <symbol id="c" overflow="visible">
   <path d="m21.875-6.5781c2.1758 0 3.8359-0.79688 4.9844-2.3906 1.1562-1.5938 1.7344-3.9102 1.7344-6.9531 0-3.0391-0.57812-5.3594-1.7344-6.9531-1.1484-1.5938-2.8086-2.3906-4.9844-2.3906-2.1875 0-3.8672 0.80469-5.0312 2.4062-1.168 1.6055-1.75 3.918-1.75 6.9375 0 3.0234 0.58203 5.3359 1.75 6.9375 1.1641 1.6055 2.8438 2.4062 5.0312 2.4062zm-6.7812-20.656c1.4062-1.8516 2.9609-3.2227 4.6719-4.1094 1.707-0.88281 3.6719-1.3281 5.8906-1.3281 3.9375 0 7.1641 1.5625 9.6875 4.6875 2.5195 3.125 3.7812 7.1484 3.7812 12.062 0 4.918-1.2617 8.9375-3.7812 12.062-2.5234 3.125-5.75 4.6875-9.6875 4.6875-2.2188 0-4.1836-0.44531-5.8906-1.3281-1.7109-0.88281-3.2656-2.2539-4.6719-4.1094v4.6094h-10.188v-44.312h10.188z"/>
  </symbol>
  <symbol id="b" overflow="visible">
   <path d="m5.3594-42.516h10.953v42.516h-10.953z"/>
  </symbol>
 </defs>
 <g>
  <path d="m396.67 560h-280c-12.379 0-24.246-4.918-33-13.668-8.75-8.7539-13.668-20.621-13.668-33v-466.66c0-12.379 4.918-24.246 13.668-33 8.7539-8.75 20.621-13.668 33-13.668h280c12.375 0 24.246 4.918 32.996 13.668 8.7539 8.7539 13.668 20.621 13.668 33v105c0 6.4414-5.2227 11.664-11.664 11.664-6.4453 0-11.668-5.2227-11.668-11.664v-105c0-6.1914-2.457-12.125-6.8359-16.5-4.375-4.375-10.309-6.8359-16.496-6.8359h-280c-6.1914 0-12.125 2.4609-16.5 6.8359s-6.8359 10.309-6.8359 16.5v466.66c0 6.1914 2.4609 12.125 6.8359 16.5s10.309 6.8359 16.5 6.8359h280c6.1875 0 12.121-2.4609 16.496-6.8359 4.3789-4.375 6.8359-10.309 6.8359-16.5v-105c0-6.4414 5.2227-11.664 11.668-11.664 6.4414 0 11.664 5.2227 11.664 11.664v105c0 12.379-4.9141 24.246-13.668 33-8.75 8.75-20.621 13.668-32.996 13.668z"/>
  <path d="m373.33 93.332h-233.33c-6.4414 0-11.668-5.2227-11.668-11.664 0-6.4453 5.2266-11.668 11.668-11.668h233.33c6.4453 0 11.668 5.2227 11.668 11.668 0 6.4414-5.2227 11.664-11.668 11.664z"/>
  <path d="m373.33 490h-233.33c-6.4414 0-11.668-5.2227-11.668-11.668 0-6.4414 5.2266-11.664 11.668-11.664h233.33c6.4453 0 11.668 5.2227 11.668 11.664 0 6.4453-5.2227 11.668-11.668 11.668z"/>
  <path d="m583.33 560h-105c-6.4414 0-11.664-5.2227-11.664-11.668 0-6.4414 5.2227-11.664 11.664-11.664h105c6.1914 0 12.125-2.4609 16.5-6.8359s6.8359-10.309 6.8359-16.5v-466.66c0-6.1914-2.4609-12.125-6.8359-16.5s-10.309-6.8359-16.5-6.8359h-105c-6.4414 0-11.664-5.2227-11.664-11.664 0-6.4453 5.2227-11.668 11.664-11.668h105c12.379 0 24.246 4.918 33 13.668 8.75 8.7539 13.668 20.621 13.668 33v466.66c0 12.379-4.918 24.246-13.668 33-8.7539 8.75-20.621 13.668-33 13.668z"/>
  <path d="m560 93.332h-70c-6.4414 0-11.668-5.2227-11.668-11.664 0-6.4453 5.2266-11.668 11.668-11.668h70c6.4414 0 11.668 5.2227 11.668 11.668 0 6.4414-5.2266 11.664-11.668 11.664z"/>
  <path d="m560 490h-70c-6.4414 0-11.668-5.2227-11.668-11.668 0-6.4414 5.2266-11.664 11.668-11.664h70c6.4414 0 11.668 5.2227 11.668 11.664 0 6.4453-5.2266 11.668-11.668 11.668z"/>
  <path d="m268.33 350c-3.0938 0-6.0586-1.2305-8.2461-3.418l-58.332-58.332h-0.003906c-4.5547-4.5586-4.5547-11.941 0-16.5l58.332-58.332h0.003907c4.5781-4.4219 11.852-4.3594 16.355 0.14062 4.5 4.5039 4.5625 11.777 0.14062 16.355l-50.086 50.086 50.086 50.086c3.3359 3.3359 4.332 8.3516 2.5273 12.711s-6.0586 7.2031-10.777 7.2031z"/>
  <path d="m431.67 350c-4.7188 0-8.9727-2.8438-10.777-7.2031s-0.80859-9.375 2.5273-12.711l50.086-50.086-50.086-50.086c-4.4219-4.5781-4.3594-11.852 0.14062-16.355 4.5039-4.5 11.777-4.5625 16.355-0.14062l58.332 58.332h0.003906c4.5547 4.5586 4.5547 11.941 0 16.5l-58.332 58.332h-0.003907c-2.1875 2.1875-5.1523 3.418-8.2461 3.418z"/>
  <path d="m315 350c-4.043-0.003906-7.793-2.0977-9.918-5.5352s-2.3203-7.7305-0.51172-11.348l58.332-116.67v0.003906c2.8828-5.7695 9.8906-8.1094 15.656-5.2266 5.7695 2.8789 8.1094 9.8867 5.2266 15.656l-58.332 116.67v-0.003906c-1.9766 3.9609-6.0273 6.4609-10.453 6.4531z"/>
  
 </g>
</svg>
