<svg xmlns="http://www.w3.org/2000/svg" fill='#fff'  shape-rendering="geometricPrecision" text-rendering="geometricPrecision" image-rendering="optimizeQuality" fill-rule="evenodd"  clip-rule="evenodd" viewBox="0 0 512 459.22">
  <path d="M34.67 0h442.66C496.41 0 512 15.58 512 34.66v389.89c0 19.04-15.59 34.67-34.67 34.67H34.67C15.58 459.22 0 443.63 0 424.55V34.66C0 15.58 15.58 0 34.67 0zM78.9 115.22h354.2c6.51 0 12.42 2.7 16.7 6.98 4.32 4.32 7 10.27 7 16.72v173.79c0 6.44-2.72 12.38-7.02 16.68-4.3 4.31-10.25 7.02-16.68 7.02H78.9c-6.43 0-12.38-2.69-16.69-7-4.31-4.28-7.01-10.19-7.01-16.7V138.92c0-6.5 2.67-12.42 6.96-16.71 4.29-4.32 10.22-6.99 16.74-6.99zm108.31 94.36v-15.1c-3.51-.59-9.18-.88-17.02-.88-7.83 0-17.6 1.22-29.3 3.68l-4.56-22.26c14.27-4.45 28.07-6.67 41.41-6.67 11.46 0 19.77.7 24.91 2.1 5.15 1.41 8.96 3.1 11.41 5.09 5.38 4.56 8.07 11.47 8.07 20.71 0 11.69-4.85 20.12-14.56 25.27v.87c11.58 4.8 17.37 13.52 17.37 26.15 0 6.2-.97 11.49-2.9 15.88-1.92 4.38-4.35 7.78-7.28 10.18-2.92 2.39-6.78 4.29-11.58 5.7-7.14 1.99-17.17 2.98-30.09 2.98-12.93 0-25.88-1.52-38.87-4.56l4.91-25.25c11.12 2.69 20.53 4.03 28.26 4.03 7.71 0 14.32-.34 19.82-1.05v-14.93l-30.18-2.98v-25.45l30.18-3.51zm53.17 68.09c-2.57-2.69-3.86-7.49-3.86-14.39s1.29-11.76 3.86-14.57c2.57-2.8 7.63-4.21 15.18-4.21s12.61 1.41 15.18 4.21c2.57 2.81 3.86 7.67 3.86 14.57s-1.29 11.7-3.86 14.39c-2.57 2.69-7.63 4.03-15.18 4.03s-12.61-1.34-15.18-4.03zm52.38-9.04c-3.34-5.09-5.64-10.97-6.93-17.63-1.29-6.67-1.93-15.06-1.93-25.19 0-10.11.64-18.51 1.93-25.18 1.29-6.66 3.59-12.54 6.93-17.63 3.33-5.09 8.13-8.8 14.39-11.14s14.18-3.51 23.77-3.51c9.6 0 17.49 1.17 23.69 3.51 6.2 2.34 11 6.05 14.39 11.14 3.39 5.09 5.71 10.97 6.93 17.63 1.23 6.67 1.85 15.09 1.85 25.27s-.62 18.57-1.85 25.18c-1.22 6.61-3.54 12.46-6.93 17.55-3.39 5.09-8.19 8.8-14.39 11.14-6.2 2.34-14.09 3.51-23.69 3.51-9.59 0-17.51-1.17-23.77-3.51-6.26-2.34-11.06-6.05-14.39-11.14zm25.43-62.73v49.13h7.37c5.27 0 12.66-.55 14.76-1.67 2.11-1.11 3.16-3.65 3.16-7.63V196.6h-8.25c-5.14 0-12.36.53-14.23 1.58-1.86 1.04-2.81 3.63-2.81 7.72zm114.91-75.85H78.9c-2.43 0-4.66 1.01-6.26 2.61a8.812 8.812 0 0 0-2.61 6.26v173.79c0 2.41 1.02 4.61 2.63 6.22 1.62 1.64 3.85 2.65 6.24 2.65h354.2c2.35 0 4.57-1.03 6.2-2.67 1.63-1.63 2.67-3.84 2.67-6.2V138.92c0-2.38-1.02-4.61-2.65-6.24-1.61-1.61-3.81-2.63-6.22-2.63zM22.04 83.75v344.17c0 5.34 4.25 9.59 9.59 9.59h450.16c5.33 0 9.59-4.29 9.59-9.59V83.75H22.04zm422.29-53.67c9.46 0 17.13 7.67 17.13 17.13 0 9.45-7.67 17.12-17.13 17.12-9.46 0-17.12-7.67-17.12-17.12 0-9.46 7.71-17.13 17.12-17.13zm-116 0c9.46 0 17.13 7.67 17.13 17.13 0 9.45-7.67 17.12-17.13 17.12-9.46 0-17.12-7.67-17.12-17.12 0-9.46 7.66-17.13 17.12-17.13zm58 0c9.46 0 17.13 7.67 17.13 17.13 0 9.45-7.67 17.12-17.13 17.12-9.46 0-17.12-7.67-17.12-17.12 0-9.46 7.66-17.13 17.12-17.13zM278.62 400.52c-7.41 0-13.41-6.54-13.41-14.58 0-8.08 6-14.58 13.41-14.58h164.61c7.41 0 13.41 6.54 13.41 14.58s-6 14.58-13.41 14.58H278.62zm-210.35 0c-7.34 0-13.29-6.54-13.29-14.58 0-8.08 5.95-14.58 13.29-14.58H215.5c7.33 0 13.29 6.54 13.29 14.58s-5.96 14.58-13.29 14.58H68.27z"/>
</svg>